<svg xmlns="http://www.w3.org/2000/svg" viewBox="0 0 620 150" role="img" aria-labelledby="title desc">
  <title id="title">SegreteriaVocale</title>
  <desc id="desc">Logo con fumetto, telefono e onda audio per un generatore di segreterie vocali.</desc>
  <defs>
    <linearGradient id="markGradient" x1="12" x2="130" y1="18" y2="130" gradientUnits="userSpaceOnUse">
      <stop stop-color="#1f8f79"/>
      <stop offset="1" stop-color="#d79b23"/>
    </linearGradient>
    <linearGradient id="wordGradient" x1="165" x2="610" y1="34" y2="116" gradientUnits="userSpaceOnUse">
      <stop stop-color="#17211f"/>
      <stop offset="1" stop-color="#176b5b"/>
    </linearGradient>
  </defs>
  <g fill="none" fill-rule="evenodd">
    <path fill="url(#markGradient)" d="M75 12c35.346 0 64 25.967 64 58 0 32.032-28.654 58-64 58-7.457 0-14.616-1.157-21.273-3.285L24.5 139.5l7.83-26.304C19.312 102.55 11 87.075 11 70c0-32.033 28.654-58 64-58Z"/>
    <path fill="#fff" d="M49.915 42.22c3.324-3.32 8.716-3.32 12.04 0l9.1 9.09c2.646 2.644 3.207 6.725 1.378 9.98l-3.69 6.566c5.35 9.15 12.9 16.675 22.08 22.002l6.555-3.683c3.257-1.83 7.345-1.268 9.991 1.375l9.1 9.09c3.324 3.32 3.324 8.707 0 12.027l-4.688 4.684c-5.274 5.269-13.077 7.18-20.146 4.811-27.752-9.294-49.553-31.071-58.858-58.793-2.371-7.06-.458-14.855 4.816-20.124l4.688-4.684Z"/>
    <path stroke="#fff" stroke-linecap="round" stroke-width="6" d="M86 48v44m17-32v20m17-42v64"/>
    <path fill="url(#wordGradient)" d="M174.9 94.41c9.885 0 16.2-4.455 16.2-11.34 0-6.075-3.97-9.072-13.122-11.178l-6.723-1.539c-13.041-2.997-19.842-9.234-19.842-20.412 0-13.527 11.016-22.842 27.54-22.842 9.477 0 18.306 2.592 25.029 7.209l-5.022 11.016c-6.48-4.455-13.446-6.642-20.736-6.642-8.181 0-13.365 3.807-13.365 9.882 0 5.265 3.483 8.262 12.15 10.206l6.804 1.539c14.094 3.24 20.736 9.477 20.736 21.303 0 14.256-11.502 24.381-29.484 24.381-11.502 0-21.789-3.24-28.998-9.072l5.346-11.097c7.209 5.832 15.066 8.586 23.487 8.586Zm56.862 11.583c-16.443 0-27.216-11.178-27.216-28.269 0-16.929 10.611-28.431 26.244-28.431 15.066 0 24.786 10.692 24.786 27.297v3.645h-37.665c.81 9.396 5.832 14.58 14.337 14.58 6.237 0 11.259-2.349 15.066-6.966l7.128 7.533c-5.265 6.885-13.284 10.611-22.68 10.611Zm-.729-46.251c-7.29 0-12.231 4.86-13.041 12.636h25.029c-.405-7.857-4.86-12.636-11.988-12.636Zm53.865 46.251c-15.795 0-26.001-11.016-26.001-28.107 0-17.01 10.287-28.593 25.515-28.593 7.533 0 13.446 3.078 16.686 8.181v-7.209h12.879v50.787c0 16.2-10.611 25.92-28.431 25.92-8.586 0-16.767-2.025-22.761-5.589l2.997-10.611c6.318 3.321 12.393 4.941 18.792 4.941 10.449 0 15.957-4.86 15.957-14.175v-6.237c-3.483 6.642-9.315 10.692-15.633 10.692Zm3.564-11.178c7.452 0 12.393-6.885 12.393-17.253 0-10.368-4.941-17.091-12.555-17.091-7.695 0-12.879 6.804-12.879 17.253 0 10.368 5.184 17.091 13.041 17.091Zm58.401 11.178c-16.443 0-27.216-11.178-27.216-28.269 0-16.929 10.611-28.431 26.244-28.431 15.066 0 24.786 10.692 24.786 27.297v3.645h-37.665c.81 9.396 5.832 14.58 14.337 14.58 6.237 0 11.259-2.349 15.066-6.966l7.128 7.533c-5.265 6.885-13.284 10.611-22.68 10.611Zm-.729-46.251c-7.29 0-12.231 4.86-13.041 12.636h25.029c-.405-7.857-4.86-12.636-11.988-12.636Zm31.428 45.279V50.265h13.203v8.91c2.754-6.156 8.262-9.639 15.228-9.639 1.701 0 3.078.162 4.293.486v12.312c-1.863-.567-3.726-.81-5.913-.81-8.343 0-13.365 5.589-13.365 14.742v28.755h-13.446Zm45.279 0h-13.446V50.265h13.446v54.756Zm-6.723-63.585c-4.698 0-7.857-3.159-7.857-7.857 0-4.617 3.159-7.776 7.857-7.776 4.617 0 7.776 3.159 7.776 7.776 0 4.698-3.159 7.857-7.776 7.857Zm37.746 64.557c-16.119 0-26.973-11.34-26.973-28.431 0-17.01 10.854-28.269 27.054-28.269 16.119 0 26.973 11.259 26.973 28.269 0 17.091-10.854 28.431-27.054 28.431Zm0-11.34c8.262 0 13.365-6.561 13.365-17.091 0-10.368-5.103-16.929-13.365-16.929-8.343 0-13.446 6.561-13.446 16.929 0 10.53 5.103 17.091 13.446 17.091Zm58.725 10.368L490.8 50.265h14.337l13.527 40.419 13.527-40.419h13.932l-20.817 54.756h-12.717Zm57.591.972c-16.119 0-26.973-11.34-26.973-28.431 0-17.01 10.854-28.269 27.054-28.269 16.119 0 26.973 11.259 26.973 28.269 0 17.091-10.854 28.431-27.054 28.431Zm0-11.34c8.262 0 13.365-6.561 13.365-17.091 0-10.368-5.103-16.929-13.365-16.929-8.343 0-13.446 6.561-13.446 16.929 0 10.53 5.103 17.091 13.446 17.091Z"/>
  </g>
</svg>
